#N canvas 0 0 667 710 16;
#N canvas 0 22 450 300 (subpatch) 0;
#X array Onda 882 float 0;
#X coords 0 5 882 -5 200 130 1;
#X restore 17 508 graph;
#N canvas 0 22 450 300 (subpatch) 0;
#X array Espectro 128 float 0;
#X coords 0 4300 127 -40 257 130 1;
#X restore 350 506 graph;
#N canvas 683 0 667 710 fft 0;
#X obj 18 81 inlet~;
#X obj 138 293 inlet;
#X obj 18 111 rfft~;
#X obj 18 144 *~;
#X obj 57 145 *~;
#X obj 18 174 sqrt~;
#X obj 403 83 block~ 4096 1;
#X obj 18 226 biquad~ 0 0 0 0 1;
#X text 82 112 Fourier series;
#X text 21 3 This subpatch computes the spectrum of the incoming signal
with a (rectangular windowed) FFT. FFTs aren't properly introduced
until much later.;
#X text 82 81 signal to analyze;
#X text 203 223 delay two samples;
#X text 201 246 for better graphing;
#X obj 21 499 samplerate~;
#X obj 21 476 bng 18 250 50 0 empty empty empty 0 -6 0 8 -262144 -1
-1;
#X floatatom 21 546 5 0 0 0 - - -;
#X obj 21 522 / 256;
#X obj 21 445 loadbang;
#X floatatom 21 650 5 0 0 0 - - -;
#X obj 40 579 s fundamental;
#X obj 21 626 ftom;
#X text 86 649 <-just out of curiosity \, here's the pitch;
#X text 15 383 At load time \, calculate a good choice of fundamental
frequency for showing spectra: the 16th bin in a 4096-point spectrum
\, so SR*16/4096 or SR/256.;
#X text 198 292 "bang" into this inlet to graph it;
#X obj 17 325 tabwrite~ Espectro;
#X text 88 173 calculate magnitude;
#X connect 0 0 2 0;
#X connect 1 0 24 0;
#X connect 2 0 3 0;
#X connect 2 0 3 1;
#X connect 2 1 4 0;
#X connect 2 1 4 1;
#X connect 3 0 5 0;
#X connect 4 0 5 0;
#X connect 5 0 7 0;
#X connect 7 0 24 0;
#X connect 13 0 16 0;
#X connect 14 0 13 0;
#X connect 15 0 19 0;
#X connect 15 0 20 0;
#X connect 16 0 15 0;
#X connect 17 0 14 0;
#X connect 20 0 18 0;
#X restore 89 315 pd fft;
#X text 385 640 1;
#X text 419 640 2;
#X text 451 640 3;
#X text 483 640 4;
#X text 516 640 5;
#X text 546 640 6;
#X text 577 640 7;
#X text 353 640 0;
#X text 231 560 0;
#X obj 16 63 r fundamental;
#X obj 16 132 osc~;
#X obj 42 177 tgl 18 0 empty empty empty 0 -6 0 8 -204786 -1 -1 1 1
;
#X obj 15 219 *~;
#X obj 62 132 osc~;
#X obj 61 219 *~;
#X obj 62 109 * 2;
#X obj 108 132 osc~;
#X obj 107 219 *~;
#X obj 154 132 osc~;
#X obj 153 219 *~;
#X obj 200 132 osc~;
#X obj 199 219 *~;
#X obj 16 109 * 1;
#X obj 108 109 * 3;
#X obj 154 109 * 4;
#X obj 200 109 * 5;
#X text 614 625 0;
#X text 612 504 1;
#X text 613 563 0.5;
#X text 232 502 5;
#X text 223 621 -5;
#X obj 468 388 s fundamental;
#X text 21 12 ESPECTRO DE AUDIO;
#X text 365 658 -- numero de parcial --;
#X text 13 647 ---- 0.02 segundos ----;
#X text 90 262 suma;
#X obj 468 158 tgl 20 0 empty empty empty 17 7 0 10 -257985 -1 -1 1
1;
#X obj 468 361 mtof;
#X obj 468 227 counter;
#X obj 468 280 sel 1;
#X obj 468 334 + 20;
#X obj 468 307 random 30;
#X obj 468 254 % 4;
#X obj 17 508 cnv 15 200 130 empty empty empty 20 12 0 14 -260097 -66577
0;
#X obj 17 368 dac~;
#X obj 351 506 cnv 15 255 130 empty empty empty 20 12 0 14 -4034 -66577
0;
#X text 497 156 <- Click;
#N canvas 0 0 450 300 Audio 0;
#X obj 325 144 inlet;
#X msg 325 239 \; pd dsp \$1;
#X connect 0 0 1 0;
#X restore 468 69 pd Audio On/Off;
#X obj 468 41 tgl 20 0 empty empty empty 17 7 0 10 -257985 -1 -1 1
1;
#X obj 157 315 tabwrite~ Onda;
#N canvas 0 0 450 300 pressESC 0;
#X obj 53 47 key;
#X obj 53 73 sel 27;
#X obj 53 130 outlet;
#X connect 0 0 1 0;
#X connect 1 0 2 0;
#X restore 509 18 pd pressESC;
#X obj 15 262 *~ 1;
#X obj 16 314 *~ 0.3;
#X obj 88 177 tgl 18 0 empty empty empty 0 -6 0 8 -204786 -1 -1 1 1
;
#X obj 134 177 tgl 18 0 empty empty empty 0 -6 0 8 -204786 -1 -1 1
1;
#X obj 180 177 tgl 18 0 empty empty empty 0 -6 0 8 -204786 -1 -1 1
1;
#X obj 226 177 tgl 18 0 empty empty empty 0 -6 0 8 -204786 -1 -1 1
1;
#X obj 468 200 metro 30;
#X connect 12 0 25 0;
#X connect 12 0 18 0;
#X connect 12 0 26 0;
#X connect 12 0 27 0;
#X connect 12 0 28 0;
#X connect 13 0 15 0;
#X connect 14 0 15 1;
#X connect 15 0 54 0;
#X connect 16 0 17 0;
#X connect 17 0 54 0;
#X connect 18 0 16 0;
#X connect 19 0 20 0;
#X connect 20 0 54 0;
#X connect 21 0 22 0;
#X connect 22 0 54 0;
#X connect 23 0 24 0;
#X connect 24 0 54 0;
#X connect 25 0 13 0;
#X connect 26 0 19 0;
#X connect 27 0 21 0;
#X connect 28 0 23 0;
#X connect 39 0 60 0;
#X connect 40 0 34 0;
#X connect 41 0 45 0;
#X connect 42 0 44 0;
#X connect 43 0 40 0;
#X connect 44 0 43 0;
#X connect 45 0 42 0;
#X connect 51 0 50 0;
#X connect 53 0 51 0;
#X connect 54 0 2 0;
#X connect 54 0 52 0;
#X connect 54 0 55 0;
#X connect 55 0 47 0;
#X connect 55 0 47 1;
#X connect 56 0 17 1;
#X connect 57 0 20 1;
#X connect 58 0 22 1;
#X connect 59 0 24 1;
#X connect 60 0 2 1;
#X connect 60 0 41 0;
#X connect 60 0 52 0;
