#N canvas 0 0 664 498 16;
#X obj 19 107 metro 1000;
#X obj 19 36 tgl 25 0 empty empty empty 17 7 0 10 -262144 -1 -1 1 1
;
#X floatatom 19 178 5 0 0 0 - - -;
#X obj 19 144 counter;
#X text 64 34 click aqui para comenzar a contar;
#X text 210 118 click aqui para establecer el maximo;
#X msg 163 121 4;
#X obj 19 287 bng 20 250 50 0 empty empty empty 17 7 0 10 -262144 -4034
-1;
#X obj 45 287 bng 20 250 50 0 empty empty empty 17 7 0 10 -262144 -4034
-1;
#X obj 72 287 bng 20 250 50 0 empty empty empty 17 7 0 10 -262144 -4034
-1;
#X obj 99 287 bng 20 250 50 0 empty empty empty 17 7 0 10 -262144 -4034
-1;
#X obj 19 234 sel 0 1 2 3;
#X obj 126 336 bng 20 250 50 0 empty empty empty 17 7 0 10 -262144
-258113 -1;
#X text 159 231 el objecto [sel] reconoce los numeros que entran por
la entrada y los distribuye por por la salida apropiada;
#X text 162 333 el [counter] cuanta hasta 4 pero sel solo interpreta
del 0 al 3 Cualquier otro numero es descartado como basura.;
#X connect 0 0 3 0;
#X connect 1 0 0 0;
#X connect 2 0 11 0;
#X connect 3 0 2 0;
#X connect 6 0 3 4;
#X connect 11 0 7 0;
#X connect 11 1 8 0;
#X connect 11 2 9 0;
#X connect 11 3 10 0;
#X connect 11 4 12 0;
